<?xml version="1.0" encoding="utf-8"?>
<!-- Generator: Adobe Illustrator 25.0.0, SVG Export Plug-In . SVG Version: 6.00 Build 0)  -->
<svg version="1.1" id="Laag_1" xmlns="http://www.w3.org/2000/svg" xmlns:xlink="http://www.w3.org/1999/xlink" x="0px" y="0px"
	 viewBox="0 0 90 90" style="enable-background:new 0 0 90 90;" xml:space="preserve">
<style type="text/css">
	.st0{fill:url(#SVGID_1_);}
	.st1{fill:url(#SVGID_2_);}
	.st2{fill:url(#SVGID_3_);}
	.st3{fill:url(#SVGID_4_);}
	.st4{fill:url(#SVGID_5_);}
	.st5{fill:url(#SVGID_6_);}
</style>
<g>
	<g>
		<g>
			<g>
				<linearGradient id="SVGID_1_" gradientUnits="userSpaceOnUse" x1="25.1017" y1="44.7904" x2="64.3891" y2="44.7904">
					<stop  offset="0" style="stop-color:#D8DF21"/>
					<stop  offset="1" style="stop-color:#9CC53F"/>
				</linearGradient>
				<path class="st0" d="M61.8,21.6c1.7-4.2,2.6-7.3,2.6-9.2c-0.1-6.2-3.2-9.3-9.4-9.2c-2.1,0-4.1,0.7-6,2.1
					c-1.7,1.2-2.9,2.5-3.5,3.9c-0.8,1.9-1,3.4-0.8,4.4c0.1,0.4,0.5,0.5,1.4,0.2c1.2-0.4,1.9-0.5,2-0.5c1.8,0,2.7,0.8,2.7,2.4
					c0,1.1-0.4,2.7-1.2,4.6L35.3,51.3l-5.8,12.5c-0.5,1.2-1,2.3-1.5,3.4L27.7,68h0c-1.7,4.2-2.6,7.3-2.6,9.2c0,6.2,3.2,9.3,9.4,9.2
					c2.1,0,4.1-0.7,6-2.1c1.7-1.2,2.9-2.5,3.5-3.9c0.8-1.9,1-3.4,0.8-4.4c-0.1-0.4-0.5-0.5-1.4-0.2c-1.2,0.4-1.9,0.5-2,0.5
					c-1.8,0-2.7-0.8-2.7-2.4c0-1.1,0.4-2.7,1.2-4.6l14.2-31.2L60,25.8c0.5-1.2,1-2.3,1.5-3.4L61.8,21.6L61.8,21.6z"/>
				<g>
					<linearGradient id="SVGID_2_" gradientUnits="userSpaceOnUse" x1="25.101" y1="13.2446" x2="64.3891" y2="13.2446">
						<stop  offset="0" style="stop-color:#9CC53F"/>
						<stop  offset="1" style="stop-color:#D8DF21"/>
					</linearGradient>
					<path class="st1" d="M61.8,21.6L61.8,21.6c1.7-4.2,2.6-7.3,2.6-9.2c-0.1-6.2-3.2-9.3-9.4-9.2c-2.1,0-4.1,0.7-6,2.1
						c-1.7,1.2-2.9,2.5-3.5,3.9c-0.8,1.9-1,3.4-0.8,4.4c0.1,0.4,0.5,0.5,1.4,0.2c0.6-0.2,1-0.3,1.3-0.4l0,0c0,0,19.1-11.3,13.7,10
						c0.1-0.3,0.3-0.6,0.4-0.9L61.8,21.6z"/>
				</g>
				<linearGradient id="SVGID_3_" gradientUnits="userSpaceOnUse" x1="4.4053" y1="41.2805" x2="44.9236" y2="41.2805">
					<stop  offset="0" style="stop-color:#9CC53F"/>
					<stop  offset="1" style="stop-color:#D8DF21"/>
				</linearGradient>
				<path class="st2" d="M22,77.3L22,77.3L22,77.3c0-0.3,0-0.6,0-0.8C12.2,69.4,5.8,57.8,5.8,44.8c0-21.2,16.9-38.4,37.9-38.9
					c0.4-0.5,0.8-0.9,1.2-1.4c-0.1,0-0.1,0-0.2,0C22.5,4.5,4.4,22.5,4.4,44.8c0,13.8,7,26.1,17.6,33.3C22,77.8,22,77.5,22,77.3z"/>
				
					<linearGradient id="SVGID_4_" gradientUnits="userSpaceOnUse" x1="233.8658" y1="32.2604" x2="274.3841" y2="32.2604" gradientTransform="matrix(-1 0 0 -1 319.3288 80.561)">
					<stop  offset="0" style="stop-color:#9CC53F"/>
					<stop  offset="1" style="stop-color:#D8DF21"/>
				</linearGradient>
				<path class="st3" d="M67.9,12.3L67.9,12.3L67.9,12.3c0,0.3,0,0.6,0,0.8c9.8,7.1,16.2,18.6,16.2,31.6c0,21.2-16.9,38.4-37.9,38.9
					c-0.4,0.5-0.8,0.9-1.2,1.4c0.1,0,0.1,0,0.2,0c22.3,0,40.3-18.1,40.3-40.3c0-13.8-7-26.1-17.6-33.3C67.9,11.8,67.9,12,67.9,12.3z
					"/>
			</g>
			<g>
				
					<linearGradient id="SVGID_5_" gradientUnits="userSpaceOnUse" x1="-977.5677" y1="422.7141" x2="-938.28" y2="422.7141" gradientTransform="matrix(-1 0 0 -1 -913.1783 497.9935)">
					<stop  offset="0" style="stop-color:#D8DF21"/>
					<stop  offset="1" style="stop-color:#9CC53F"/>
				</linearGradient>
				<path class="st4" d="M27.7,67L27.7,67c-1.7,4.2-2.6,7.3-2.6,9.2c0.1,6.2,3.2,9.3,9.4,9.2c2.1,0,4.1-0.7,6-2.1
					c1.7-1.2,2.9-2.5,3.5-3.9c0.8-1.9,1-3.4,0.8-4.4c-0.1-0.4-0.5-0.5-1.4-0.2c-0.6,0.2-1,0.3-1.3,0.4l0,0c0,0-19.1,11.3-13.7-10
					c-0.1,0.3-0.3,0.6-0.4,0.9L27.7,67z"/>
			</g>
		</g>
		<linearGradient id="SVGID_6_" gradientUnits="userSpaceOnUse" x1="44.5678" y1="71.8492" x2="81.8803" y2="71.8492">
			<stop  offset="0" style="stop-color:#9CC53F"/>
			<stop  offset="1" style="stop-color:#D8DF21"/>
		</linearGradient>
		<path class="st5" d="M80.4,59.6c-5.9,13.4-19.1,22.8-34.6,23.2c-0.4,0.5-0.8,0.9-1.2,1.4c0.1,0,0.1,0,0.2,0
			c16.7,0,31-10.1,37.1-24.6H80.4z"/>
	</g>
</g>
</svg>
